<?xml version="1.0" encoding="us-ascii" standalone="no"?><svg xmlns="http://www.w3.org/2000/svg" xmlns:xlink="http://www.w3.org/1999/xlink" contentStyleType="text/css" height="502px" preserveAspectRatio="none" style="width:419px;height:502px;background:#FFFFFF;" version="1.1" viewBox="0 0 419 502" width="419px" zoomAndPan="magnify"><defs/><g><!--class Studijn? program--><g id="elem_Studijn&#237; program"><rect codeLine="2" fill="#F1F1F1" height="64.2969" id="Studijn&#237; program" rx="2.5" ry="2.5" style="stroke:#181818;stroke-width:0.5;" width="152" x="83.5" y="116"/><ellipse cx="98.5" cy="132" fill="#ADD1B2" rx="11" ry="11" style="stroke:#181818;stroke-width:1.0;"/><path d="M100.8438,127.6719 C99.9063,127.2344 99.3125,127.0938 98.4375,127.0938 C95.8125,127.0938 93.8125,129.1719 93.8125,131.8906 L93.8125,133.0156 C93.8125,135.5938 95.9219,137.4844 98.8125,137.4844 C100.0313,137.4844 101.1875,137.1875 101.9375,136.6406 C102.5156,136.2344 102.8438,135.7813 102.8438,135.3906 C102.8438,134.9375 102.4531,134.5469 101.9844,134.5469 C101.7656,134.5469 101.5625,134.625 101.375,134.8125 C100.9219,135.2969 100.9219,135.2969 100.7344,135.3906 C100.3125,135.6563 99.625,135.7813 98.8594,135.7813 C96.8125,135.7813 95.5156,134.6875 95.5156,132.9844 L95.5156,131.8906 C95.5156,130.1094 96.7656,128.7969 98.5,128.7969 C99.0781,128.7969 99.6875,128.9531 100.1563,129.2031 C100.6406,129.4844 100.8125,129.7031 100.9063,130.1094 C100.9688,130.5156 101,130.6406 101.1406,130.7656 C101.2813,130.9063 101.5156,131.0156 101.7344,131.0156 C102,131.0156 102.2656,130.875 102.4375,130.6563 C102.5469,130.5 102.5781,130.3125 102.5781,129.8906 L102.5781,128.4688 C102.5781,128.0313 102.5625,127.9063 102.4688,127.75 C102.3125,127.4844 102.0313,127.3438 101.7344,127.3438 C101.4375,127.3438 101.2344,127.4375 101.0156,127.75 L100.8438,127.6719 Z " fill="#000000"/><text fill="#000000" font-family="sans-serif" font-size="14" lengthAdjust="spacing" textLength="120" x="112.5" y="136.8467">Studijn&#237; program</text><line style="stroke:#181818;stroke-width:0.5;" x1="84.5" x2="234.5" y1="148" y2="148"/><text fill="#000000" font-family="sans-serif" font-size="14" lengthAdjust="spacing" textLength="92" x="89.5" y="164.9951">"k&#243;d": string</text><line style="stroke:#181818;stroke-width:0.5;" x1="84.5" x2="234.5" y1="172.2969" y2="172.2969"/></g><!--class V?c--><g id="elem_V&#283;c"><rect codeLine="6" fill="#F1F1F1" height="48" id="V&#283;c" rx="2.5" ry="2.5" style="stroke:#181818;stroke-width:0.5;" width="59" x="130" y="7"/><ellipse cx="145" cy="23" fill="#ADD1B2" rx="11" ry="11" style="stroke:#181818;stroke-width:1.0;"/><path d="M147.3438,18.6719 C146.4063,18.2344 145.8125,18.0938 144.9375,18.0938 C142.3125,18.0938 140.3125,20.1719 140.3125,22.8906 L140.3125,24.0156 C140.3125,26.5938 142.4219,28.4844 145.3125,28.4844 C146.5313,28.4844 147.6875,28.1875 148.4375,27.6406 C149.0156,27.2344 149.3438,26.7813 149.3438,26.3906 C149.3438,25.9375 148.9531,25.5469 148.4844,25.5469 C148.2656,25.5469 148.0625,25.625 147.875,25.8125 C147.4219,26.2969 147.4219,26.2969 147.2344,26.3906 C146.8125,26.6563 146.125,26.7813 145.3594,26.7813 C143.3125,26.7813 142.0156,25.6875 142.0156,23.9844 L142.0156,22.8906 C142.0156,21.1094 143.2656,19.7969 145,19.7969 C145.5781,19.7969 146.1875,19.9531 146.6563,20.2031 C147.1406,20.4844 147.3125,20.7031 147.4063,21.1094 C147.4688,21.5156 147.5,21.6406 147.6406,21.7656 C147.7813,21.9063 148.0156,22.0156 148.2344,22.0156 C148.5,22.0156 148.7656,21.875 148.9375,21.6563 C149.0469,21.5 149.0781,21.3125 149.0781,20.8906 L149.0781,19.4688 C149.0781,19.0313 149.0625,18.9063 148.9688,18.75 C148.8125,18.4844 148.5313,18.3438 148.2344,18.3438 C147.9375,18.3438 147.7344,18.4375 147.5156,18.75 L147.3438,18.6719 Z " fill="#000000"/><text fill="#000000" font-family="sans-serif" font-size="14" lengthAdjust="spacing" textLength="27" x="159" y="27.8467">V&#283;c</text><line style="stroke:#181818;stroke-width:0.5;" x1="131" x2="188" y1="39" y2="39"/><line style="stroke:#181818;stroke-width:0.5;" x1="131" x2="188" y1="47" y2="47"/></g><!--class T?ma dizerta?n? pr?ce--><g id="elem_T&#233;ma dizerta&#269;n&#237; pr&#225;ce"><rect codeLine="9" fill="#F1F1F1" height="96.8906" id="T&#233;ma dizerta&#269;n&#237; pr&#225;ce" rx="2.5" ry="2.5" style="stroke:#181818;stroke-width:0.5;" width="305" x="7" y="257"/><ellipse cx="74.75" cy="273" fill="#ADD1B2" rx="11" ry="11" style="stroke:#181818;stroke-width:1.0;"/><path d="M77.0938,268.6719 C76.1563,268.2344 75.5625,268.0938 74.6875,268.0938 C72.0625,268.0938 70.0625,270.1719 70.0625,272.8906 L70.0625,274.0156 C70.0625,276.5938 72.1719,278.4844 75.0625,278.4844 C76.2813,278.4844 77.4375,278.1875 78.1875,277.6406 C78.7656,277.2344 79.0938,276.7813 79.0938,276.3906 C79.0938,275.9375 78.7031,275.5469 78.2344,275.5469 C78.0156,275.5469 77.8125,275.625 77.625,275.8125 C77.1719,276.2969 77.1719,276.2969 76.9844,276.3906 C76.5625,276.6563 75.875,276.7813 75.1094,276.7813 C73.0625,276.7813 71.7656,275.6875 71.7656,273.9844 L71.7656,272.8906 C71.7656,271.1094 73.0156,269.7969 74.75,269.7969 C75.3281,269.7969 75.9375,269.9531 76.4063,270.2031 C76.8906,270.4844 77.0625,270.7031 77.1563,271.1094 C77.2188,271.5156 77.25,271.6406 77.3906,271.7656 C77.5313,271.9063 77.7656,272.0156 77.9844,272.0156 C78.25,272.0156 78.5156,271.875 78.6875,271.6563 C78.7969,271.5 78.8281,271.3125 78.8281,270.8906 L78.8281,269.4688 C78.8281,269.0313 78.8125,268.9063 78.7188,268.75 C78.5625,268.4844 78.2813,268.3438 77.9844,268.3438 C77.6875,268.3438 77.4844,268.4375 77.2656,268.75 L77.0938,268.6719 Z " fill="#000000"/><text fill="#000000" font-family="sans-serif" font-size="14" lengthAdjust="spacing" textLength="161" x="95.25" y="277.8467">T&#233;ma dizerta&#269;n&#237; pr&#225;ce</text><line style="stroke:#181818;stroke-width:0.5;" x1="8" x2="311" y1="289" y2="289"/><text fill="#000000" font-family="sans-serif" font-size="14" lengthAdjust="spacing" textLength="213" x="13" y="305.9951">"aktu&#225;ln&#283; nab&#237;zeno": boolean</text><text fill="#000000" font-family="sans-serif" font-size="14" lengthAdjust="spacing" textLength="290" x="13" y="322.292">"kontext t&#233;matu dizerta&#269;n&#237; pr&#225;ce": text</text><text fill="#000000" font-family="sans-serif" font-size="14" lengthAdjust="spacing" textLength="293" x="13" y="338.5889">"doporu&#269;ovan&#225; pracovi&#353;t&#283; obecn&#283;": text</text><line style="stroke:#181818;stroke-width:0.5;" x1="8" x2="311" y1="345.8906" y2="345.8906"/></g><!--class V?zkumn? pracovi?t?--><g id="elem_V&#253;zkumn&#233; pracovi&#353;t&#283;"><rect codeLine="15" fill="#F1F1F1" height="64.2969" id="V&#253;zkumn&#233; pracovi&#353;t&#283;" rx="2.5" ry="2.5" style="stroke:#181818;stroke-width:0.5;" width="187" x="66" y="431"/><ellipse cx="81" cy="447" fill="#ADD1B2" rx="11" ry="11" style="stroke:#181818;stroke-width:1.0;"/><path d="M83.3438,442.6719 C82.4063,442.2344 81.8125,442.0938 80.9375,442.0938 C78.3125,442.0938 76.3125,444.1719 76.3125,446.8906 L76.3125,448.0156 C76.3125,450.5938 78.4219,452.4844 81.3125,452.4844 C82.5313,452.4844 83.6875,452.1875 84.4375,451.6406 C85.0156,451.2344 85.3438,450.7813 85.3438,450.3906 C85.3438,449.9375 84.9531,449.5469 84.4844,449.5469 C84.2656,449.5469 84.0625,449.625 83.875,449.8125 C83.4219,450.2969 83.4219,450.2969 83.2344,450.3906 C82.8125,450.6563 82.125,450.7813 81.3594,450.7813 C79.3125,450.7813 78.0156,449.6875 78.0156,447.9844 L78.0156,446.8906 C78.0156,445.1094 79.2656,443.7969 81,443.7969 C81.5781,443.7969 82.1875,443.9531 82.6563,444.2031 C83.1406,444.4844 83.3125,444.7031 83.4063,445.1094 C83.4688,445.5156 83.5,445.6406 83.6406,445.7656 C83.7813,445.9063 84.0156,446.0156 84.2344,446.0156 C84.5,446.0156 84.7656,445.875 84.9375,445.6563 C85.0469,445.5 85.0781,445.3125 85.0781,444.8906 L85.0781,443.4688 C85.0781,443.0313 85.0625,442.9063 84.9688,442.75 C84.8125,442.4844 84.5313,442.3438 84.2344,442.3438 C83.9375,442.3438 83.7344,442.4375 83.5156,442.75 L83.3438,442.6719 Z " fill="#000000"/><text fill="#000000" font-family="sans-serif" font-size="14" lengthAdjust="spacing" textLength="155" x="95" y="451.8467">V&#253;zkumn&#233; pracovi&#353;t&#283;</text><line style="stroke:#181818;stroke-width:0.5;" x1="67" x2="252" y1="463" y2="463"/><text fill="#000000" font-family="sans-serif" font-size="14" lengthAdjust="spacing" textLength="79" x="72" y="479.9951">orjk: string</text><line style="stroke:#181818;stroke-width:0.5;" x1="67" x2="252" y1="487.2969" y2="487.2969"/></g><!--reverse link V?c to Studijn? program--><g id="link_V&#283;c_Studijn&#237; program"><path codeLine="19" d="M159.5,73.272 C159.5,90.73 159.5,96.807 159.5,115.912 " fill="none" id="V&#283;c-backto-Studijn&#237; program" style="stroke:#181818;stroke-width:1.0;"/><polygon fill="none" points="159.5,55.272,153.5,73.272,165.5,73.272,159.5,55.272" style="stroke:#181818;stroke-width:1.0;"/></g><!--link Studijn? program to T?ma dizerta?n? pr?ce--><g id="link_Studijn&#237; program_T&#233;ma dizerta&#269;n&#237; pr&#225;ce"><path codeLine="20" d="M159.5,180.094 C159.5,202.074 159.5,231.949 159.5,256.914 " fill="none" id="Studijn&#237; program-T&#233;ma dizerta&#269;n&#237; pr&#225;ce" style="stroke:#181818;stroke-width:1.0;"/><text fill="#000000" font-family="sans-serif" font-size="13" lengthAdjust="spacing" textLength="129" x="160.5" y="223.0669">m&#225; studijn&#237; program</text></g><!--link T?ma dizerta?n? pr?ce to V?zkumn? pracovi?t?--><g id="link_T&#233;ma dizerta&#269;n&#237; pr&#225;ce_V&#253;zkumn&#233; pracovi&#353;t&#283;"><path codeLine="21" d="M159.5,354 C159.5,379.008 159.5,408.9637 159.5,430.9759 " fill="none" id="T&#233;ma dizerta&#269;n&#237; pr&#225;ce-V&#253;zkumn&#233; pracovi&#353;t&#283;" style="stroke:#181818;stroke-width:1.0;"/><text fill="#000000" font-family="sans-serif" font-size="13" lengthAdjust="spacing" textLength="251" x="160.5" y="397.0669">m&#225; konkr&#233;tn&#237; doporu&#269;ovan&#233; pracovi&#353;t&#283;</text></g><!--SRC=[VP0nReD044LxJZ6YzmLGRk4e_R2CB0pCeDt1YeXp19_05IM5gzIk5jyhkx5Hx8YutVt__J_VaG9ZGwv5GsjgqQAA1HQcnDJe7AHhxOfoo_u4hPMDnIQ5ZmGWhVnNaMRWr9QyIJwJMVys7KsK_Bwy-h51ACgUhE9qkAByOEX6maexFzGy7KENt9zwOWdaNAGcv9yiOQLt1OqaxHPP6KH9L1VIYkscW-oG_H3-qSYkl0mQ0YGd4u9czLrjV-whhc4_FXYk5SLkg_jJRqU-x5UhfO6IfT6YzCaIMIZUXBPkWVR45gd_Lf-PORxA-b6ZyM6SFuPl]--></g></svg>